<?xml version="1.0" encoding="UTF-8" standalone="no"?>
<svg width="800" height="600" xmlns="http://www.w3.org/2000/svg">
  <rect width="100%" height="100%" fill="#f8f9fa"/>
  <rect x="50" y="50" width="700" height="80" rx="10" fill="#e2e8f0" stroke="#4a5568" stroke-width="2"/>
  <text x="400" y="95" font-family="Arial" font-size="24" font-weight="bold" text-anchor="middle" fill="#2d3748">NetworkIQ Orchestrator Agent (Global Coordinator)</text>
  
  <rect x="50" y="200" width="150" height="100" rx="10" fill="#ebf8ff" stroke="#3182ce" stroke-width="2"/>
  <text x="125" y="245" font-family="Arial" font-size="16" font-weight="bold" text-anchor="middle" fill="#2b6cb0">South Agent</text>
  <text x="125" y="270" font-family="Arial" font-size="12" text-anchor="middle" fill="#2b6cb0">Negotiator</text>

  <rect x="233" y="200" width="150" height="100" rx="10" fill="#ebf8ff" stroke="#3182ce" stroke-width="2"/>
  <text x="308" y="245" font-family="Arial" font-size="16" font-weight="bold" text-anchor="middle" fill="#2b6cb0">West Agent</text>
  <text x="308" y="270" font-family="Arial" font-size="12" text-anchor="middle" fill="#2b6cb0">Negotiator</text>

  <rect x="416" y="200" width="150" height="100" rx="10" fill="#ebf8ff" stroke="#3182ce" stroke-width="2"/>
  <text x="491" y="245" font-family="Arial" font-size="16" font-weight="bold" text-anchor="middle" fill="#2b6cb0">East Agent</text>
  <text x="491" y="270" font-family="Arial" font-size="12" text-anchor="middle" fill="#2b6cb0">Negotiator</text>

  <rect x="600" y="200" width="150" height="100" rx="10" fill="#ebf8ff" stroke="#3182ce" stroke-width="2"/>
  <text x="675" y="245" font-family="Arial" font-size="16" font-weight="bold" text-anchor="middle" fill="#2b6cb0">Central Agent</text>
  <text x="675" y="270" font-family="Arial" font-size="12" text-anchor="middle" fill="#2b6cb0">Negotiator</text>
  
  <line x1="400" y1="130" x2="125" y2="200" stroke="#718096" stroke-width="2" />
  <line x1="400" y1="130" x2="308" y2="200" stroke="#718096" stroke-width="2" />
  <line x1="400" y1="130" x2="491" y2="200" stroke="#718096" stroke-width="2" />
  <line x1="400" y1="130" x2="675" y2="200" stroke="#718096" stroke-width="2" />

  <rect x="50" y="370" width="700" height="80" rx="10" fill="#f0fff4" stroke="#38a169" stroke-width="2"/>
  <text x="400" y="405" font-family="Arial" font-size="20" font-weight="bold" text-anchor="middle" fill="#22543d">Tiered Reasoning Engine + Guardrails</text>
  <text x="400" y="430" font-family="Arial" font-size="14" text-anchor="middle" fill="#22543d">A-Class (LLM) | B-Class (ML) | C-Class (Rules)</text>
  
  <line x1="400" y1="300" x2="400" y2="370" stroke="#718096" stroke-width="2" />
  
  <rect x="250" y="500" width="300" height="60" rx="10" fill="#fff5f5" stroke="#e53e3e" stroke-width="2"/>
  <text x="400" y="535" font-family="Arial" font-size="18" font-weight="bold" text-anchor="middle" fill="#742a2a">Planner Dashboard (UI)</text>
  
  <line x1="400" y1="450" x2="400" y2="500" stroke="#718096" stroke-width="2" />
</svg>
